<mxfile host="Electron" modified="2024-02-02T01:26:10.047Z" agent="Mozilla/5.0 (Windows NT 10.0; Win64; x64) AppleWebKit/537.36 (KHTML, like Gecko) draw.io/22.0.2 Chrome/114.0.5735.289 Electron/25.8.4 Safari/537.36" etag="EwNgFz0obv6Tzw7c0t08" version="22.0.2" type="device">
  <diagram name="Page-1" id="oBozGiqKKd02g3VfJC30">
    <mxGraphModel dx="1486" dy="731" grid="1" gridSize="10" guides="1" tooltips="1" connect="1" arrows="1" fold="1" page="1" pageScale="1" pageWidth="850" pageHeight="1100" math="0" shadow="0">
      <root>
        <mxCell id="0" />
        <mxCell id="1" parent="0" />
        <mxCell id="vlsQt3YgnCiZvY81bwS3-1" value="Student" style="rounded=0;whiteSpace=wrap;html=1;" parent="1" vertex="1">
          <mxGeometry x="200" y="365" width="100" height="50" as="geometry" />
        </mxCell>
        <mxCell id="vlsQt3YgnCiZvY81bwS3-2" value="ID" style="ellipse;whiteSpace=wrap;html=1;fontStyle=4" parent="1" vertex="1">
          <mxGeometry x="30" y="240" width="70" height="40" as="geometry" />
        </mxCell>
        <mxCell id="vlsQt3YgnCiZvY81bwS3-3" value="Email" style="ellipse;whiteSpace=wrap;html=1;" parent="1" vertex="1">
          <mxGeometry x="20" y="295" width="70" height="40" as="geometry" />
        </mxCell>
        <mxCell id="vlsQt3YgnCiZvY81bwS3-4" value="First Name" style="ellipse;whiteSpace=wrap;html=1;" parent="1" vertex="1">
          <mxGeometry x="20" y="355" width="70" height="40" as="geometry" />
        </mxCell>
        <mxCell id="vlsQt3YgnCiZvY81bwS3-5" value="Last Name" style="ellipse;whiteSpace=wrap;html=1;" parent="1" vertex="1">
          <mxGeometry x="30" y="415" width="70" height="40" as="geometry" />
        </mxCell>
        <mxCell id="vlsQt3YgnCiZvY81bwS3-7" value="Gender" style="ellipse;whiteSpace=wrap;html=1;" parent="1" vertex="1">
          <mxGeometry x="80" y="470" width="70" height="40" as="geometry" />
        </mxCell>
        <mxCell id="vlsQt3YgnCiZvY81bwS3-10" value="" style="endArrow=none;html=1;rounded=0;entryX=0.625;entryY=0.977;entryDx=0;entryDy=0;entryPerimeter=0;exitX=0;exitY=0.5;exitDx=0;exitDy=0;" parent="1" source="vlsQt3YgnCiZvY81bwS3-1" target="vlsQt3YgnCiZvY81bwS3-2" edge="1">
          <mxGeometry width="50" height="50" relative="1" as="geometry">
            <mxPoint x="210" y="455" as="sourcePoint" />
            <mxPoint x="260" y="405" as="targetPoint" />
          </mxGeometry>
        </mxCell>
        <mxCell id="vlsQt3YgnCiZvY81bwS3-11" value="" style="endArrow=none;html=1;rounded=0;exitX=0;exitY=0.5;exitDx=0;exitDy=0;" parent="1" source="vlsQt3YgnCiZvY81bwS3-1" target="vlsQt3YgnCiZvY81bwS3-3" edge="1">
          <mxGeometry width="50" height="50" relative="1" as="geometry">
            <mxPoint x="180" y="465" as="sourcePoint" />
            <mxPoint x="230" y="415" as="targetPoint" />
          </mxGeometry>
        </mxCell>
        <mxCell id="vlsQt3YgnCiZvY81bwS3-12" value="" style="endArrow=none;html=1;rounded=0;entryX=0;entryY=0.5;entryDx=0;entryDy=0;exitX=1;exitY=0.5;exitDx=0;exitDy=0;" parent="1" source="vlsQt3YgnCiZvY81bwS3-4" target="vlsQt3YgnCiZvY81bwS3-1" edge="1">
          <mxGeometry width="50" height="50" relative="1" as="geometry">
            <mxPoint x="160" y="435" as="sourcePoint" />
            <mxPoint x="210" y="385" as="targetPoint" />
          </mxGeometry>
        </mxCell>
        <mxCell id="vlsQt3YgnCiZvY81bwS3-13" value="" style="endArrow=none;html=1;rounded=0;entryX=0;entryY=0.5;entryDx=0;entryDy=0;exitX=0.966;exitY=0.336;exitDx=0;exitDy=0;exitPerimeter=0;" parent="1" source="vlsQt3YgnCiZvY81bwS3-5" target="vlsQt3YgnCiZvY81bwS3-1" edge="1">
          <mxGeometry width="50" height="50" relative="1" as="geometry">
            <mxPoint x="160" y="475" as="sourcePoint" />
            <mxPoint x="210" y="425" as="targetPoint" />
          </mxGeometry>
        </mxCell>
        <mxCell id="vlsQt3YgnCiZvY81bwS3-14" value="" style="endArrow=none;html=1;rounded=0;entryX=0;entryY=0.5;entryDx=0;entryDy=0;exitX=0.717;exitY=0.062;exitDx=0;exitDy=0;exitPerimeter=0;" parent="1" source="vlsQt3YgnCiZvY81bwS3-7" target="vlsQt3YgnCiZvY81bwS3-1" edge="1">
          <mxGeometry width="50" height="50" relative="1" as="geometry">
            <mxPoint x="190" y="475" as="sourcePoint" />
            <mxPoint x="240" y="425" as="targetPoint" />
          </mxGeometry>
        </mxCell>
        <mxCell id="vlsQt3YgnCiZvY81bwS3-27" value="Course" style="rounded=0;whiteSpace=wrap;html=1;" parent="1" vertex="1">
          <mxGeometry x="630" y="280" width="100" height="50" as="geometry" />
        </mxCell>
        <mxCell id="vlsQt3YgnCiZvY81bwS3-28" value="Name" style="ellipse;whiteSpace=wrap;html=1;" parent="1" vertex="1">
          <mxGeometry x="830" y="200" width="70" height="40" as="geometry" />
        </mxCell>
        <mxCell id="vlsQt3YgnCiZvY81bwS3-29" value="&lt;u&gt;ID&lt;/u&gt;" style="ellipse;whiteSpace=wrap;html=1;" parent="1" vertex="1">
          <mxGeometry x="820" y="160" width="70" height="40" as="geometry" />
        </mxCell>
        <mxCell id="vlsQt3YgnCiZvY81bwS3-30" value="" style="endArrow=none;html=1;rounded=0;exitX=1;exitY=0.5;exitDx=0;exitDy=0;" parent="1" source="vlsQt3YgnCiZvY81bwS3-27" target="vlsQt3YgnCiZvY81bwS3-29" edge="1">
          <mxGeometry width="50" height="50" relative="1" as="geometry">
            <mxPoint x="710" y="260" as="sourcePoint" />
            <mxPoint x="760" y="330" as="targetPoint" />
          </mxGeometry>
        </mxCell>
        <mxCell id="vlsQt3YgnCiZvY81bwS3-31" value="" style="endArrow=none;html=1;rounded=0;entryX=1;entryY=0.5;entryDx=0;entryDy=0;" parent="1" source="vlsQt3YgnCiZvY81bwS3-28" target="vlsQt3YgnCiZvY81bwS3-27" edge="1">
          <mxGeometry width="50" height="50" relative="1" as="geometry">
            <mxPoint x="690" y="420" as="sourcePoint" />
            <mxPoint x="740" y="370" as="targetPoint" />
          </mxGeometry>
        </mxCell>
        <mxCell id="vlsQt3YgnCiZvY81bwS3-32" value="Department" style="rounded=0;whiteSpace=wrap;html=1;" parent="1" vertex="1">
          <mxGeometry x="630" y="545" width="100" height="50" as="geometry" />
        </mxCell>
        <mxCell id="vlsQt3YgnCiZvY81bwS3-33" value="Name" style="ellipse;whiteSpace=wrap;html=1;" parent="1" vertex="1">
          <mxGeometry x="800" y="545" width="70" height="40" as="geometry" />
        </mxCell>
        <mxCell id="vlsQt3YgnCiZvY81bwS3-34" value="&lt;u&gt;ID&lt;/u&gt;" style="ellipse;whiteSpace=wrap;html=1;" parent="1" vertex="1">
          <mxGeometry x="790" y="475" width="70" height="40" as="geometry" />
        </mxCell>
        <mxCell id="vlsQt3YgnCiZvY81bwS3-35" value="" style="endArrow=none;html=1;rounded=0;exitX=1;exitY=0.5;exitDx=0;exitDy=0;" parent="1" source="vlsQt3YgnCiZvY81bwS3-32" target="vlsQt3YgnCiZvY81bwS3-34" edge="1">
          <mxGeometry width="50" height="50" relative="1" as="geometry">
            <mxPoint x="710" y="525" as="sourcePoint" />
            <mxPoint x="760" y="595" as="targetPoint" />
          </mxGeometry>
        </mxCell>
        <mxCell id="vlsQt3YgnCiZvY81bwS3-36" value="" style="endArrow=none;html=1;rounded=0;entryX=1;entryY=0.5;entryDx=0;entryDy=0;" parent="1" source="vlsQt3YgnCiZvY81bwS3-33" target="vlsQt3YgnCiZvY81bwS3-32" edge="1">
          <mxGeometry width="50" height="50" relative="1" as="geometry">
            <mxPoint x="690" y="685" as="sourcePoint" />
            <mxPoint x="740" y="635" as="targetPoint" />
          </mxGeometry>
        </mxCell>
        <mxCell id="vlsQt3YgnCiZvY81bwS3-41" value="Grade" style="ellipse;whiteSpace=wrap;html=1;" parent="1" vertex="1">
          <mxGeometry x="477.5" y="70" width="70" height="40" as="geometry" />
        </mxCell>
        <mxCell id="vlsQt3YgnCiZvY81bwS3-44" value="" style="endArrow=none;html=1;rounded=0;exitX=1;exitY=0.5;exitDx=0;exitDy=0;entryX=0;entryY=0.5;entryDx=0;entryDy=0;" parent="1" source="vlsQt3YgnCiZvY81bwS3-1" target="vlsQt3YgnCiZvY81bwS3-43" edge="1">
          <mxGeometry width="50" height="50" relative="1" as="geometry">
            <mxPoint x="250" y="360" as="sourcePoint" />
            <mxPoint x="410" y="315" as="targetPoint" />
          </mxGeometry>
        </mxCell>
        <mxCell id="vlsQt3YgnCiZvY81bwS3-45" value="" style="endArrow=none;html=1;rounded=0;entryX=0;entryY=0.5;entryDx=0;entryDy=0;exitX=1;exitY=0.5;exitDx=0;exitDy=0;" parent="1" source="vlsQt3YgnCiZvY81bwS3-43" target="vlsQt3YgnCiZvY81bwS3-27" edge="1">
          <mxGeometry width="50" height="50" relative="1" as="geometry">
            <mxPoint x="530" y="315" as="sourcePoint" />
            <mxPoint x="560" y="370" as="targetPoint" />
          </mxGeometry>
        </mxCell>
        <mxCell id="vlsQt3YgnCiZvY81bwS3-46" value="has/in" style="rhombus;whiteSpace=wrap;html=1;" parent="1" vertex="1">
          <mxGeometry x="630" y="415" width="55" height="55" as="geometry" />
        </mxCell>
        <mxCell id="vlsQt3YgnCiZvY81bwS3-47" value="" style="endArrow=none;html=1;rounded=0;entryX=0.5;entryY=1;entryDx=0;entryDy=0;exitX=0.5;exitY=0;exitDx=0;exitDy=0;shape=link;" parent="1" source="vlsQt3YgnCiZvY81bwS3-46" target="vlsQt3YgnCiZvY81bwS3-27" edge="1">
          <mxGeometry width="50" height="50" relative="1" as="geometry">
            <mxPoint x="590" y="400" as="sourcePoint" />
            <mxPoint x="640" y="350" as="targetPoint" />
          </mxGeometry>
        </mxCell>
        <mxCell id="vlsQt3YgnCiZvY81bwS3-48" value="" style="endArrow=none;html=1;rounded=0;entryX=0.5;entryY=1;entryDx=0;entryDy=0;exitX=0.439;exitY=0.018;exitDx=0;exitDy=0;exitPerimeter=0;" parent="1" source="vlsQt3YgnCiZvY81bwS3-32" target="vlsQt3YgnCiZvY81bwS3-46" edge="1">
          <mxGeometry width="50" height="50" relative="1" as="geometry">
            <mxPoint x="500" y="510" as="sourcePoint" />
            <mxPoint x="550" y="460" as="targetPoint" />
          </mxGeometry>
        </mxCell>
        <mxCell id="vlsQt3YgnCiZvY81bwS3-49" value="enrolled in" style="rhombus;whiteSpace=wrap;html=1;" parent="1" vertex="1">
          <mxGeometry x="420" y="460" width="75" height="55" as="geometry" />
        </mxCell>
        <mxCell id="vlsQt3YgnCiZvY81bwS3-50" value="" style="endArrow=none;html=1;rounded=0;entryX=1;entryY=0.5;entryDx=0;entryDy=0;exitX=0;exitY=0.5;exitDx=0;exitDy=0;shape=link;" parent="1" source="vlsQt3YgnCiZvY81bwS3-49" target="vlsQt3YgnCiZvY81bwS3-1" edge="1">
          <mxGeometry width="50" height="50" relative="1" as="geometry">
            <mxPoint x="340" y="520" as="sourcePoint" />
            <mxPoint x="390" y="470" as="targetPoint" />
          </mxGeometry>
        </mxCell>
        <mxCell id="vlsQt3YgnCiZvY81bwS3-51" value="" style="endArrow=none;html=1;rounded=0;entryX=0;entryY=0.5;entryDx=0;entryDy=0;exitX=1;exitY=0.5;exitDx=0;exitDy=0;" parent="1" source="vlsQt3YgnCiZvY81bwS3-49" target="vlsQt3YgnCiZvY81bwS3-32" edge="1">
          <mxGeometry width="50" height="50" relative="1" as="geometry">
            <mxPoint x="480" y="590" as="sourcePoint" />
            <mxPoint x="530" y="540" as="targetPoint" />
          </mxGeometry>
        </mxCell>
        <mxCell id="vlsQt3YgnCiZvY81bwS3-53" value="M" style="text;html=1;strokeColor=none;fillColor=none;align=center;verticalAlign=middle;whiteSpace=wrap;rounded=0;" parent="1" vertex="1">
          <mxGeometry x="290" y="405" width="40" height="20" as="geometry" />
        </mxCell>
        <mxCell id="vlsQt3YgnCiZvY81bwS3-57" value="1" style="text;html=1;strokeColor=none;fillColor=none;align=center;verticalAlign=middle;whiteSpace=wrap;rounded=0;" parent="1" vertex="1">
          <mxGeometry x="600" y="575" width="40" height="20" as="geometry" />
        </mxCell>
        <mxCell id="vlsQt3YgnCiZvY81bwS3-58" value="M" style="text;html=1;strokeColor=none;fillColor=none;align=center;verticalAlign=middle;whiteSpace=wrap;rounded=0;" parent="1" vertex="1">
          <mxGeometry x="290" y="360" width="40" height="20" as="geometry" />
        </mxCell>
        <mxCell id="vlsQt3YgnCiZvY81bwS3-59" value="M" style="text;html=1;strokeColor=none;fillColor=none;align=center;verticalAlign=middle;whiteSpace=wrap;rounded=0;" parent="1" vertex="1">
          <mxGeometry x="600" y="285" width="40" height="20" as="geometry" />
        </mxCell>
        <mxCell id="vlsQt3YgnCiZvY81bwS3-60" value="M" style="text;html=1;strokeColor=none;fillColor=none;align=center;verticalAlign=middle;whiteSpace=wrap;rounded=0;" parent="1" vertex="1">
          <mxGeometry x="637.5" y="525" width="40" height="20" as="geometry" />
        </mxCell>
        <mxCell id="vlsQt3YgnCiZvY81bwS3-61" value="M" style="text;html=1;strokeColor=none;fillColor=none;align=center;verticalAlign=middle;whiteSpace=wrap;rounded=0;" parent="1" vertex="1">
          <mxGeometry x="645" y="330" width="40" height="20" as="geometry" />
        </mxCell>
        <mxCell id="vlsQt3YgnCiZvY81bwS3-65" value="" style="endArrow=none;html=1;rounded=0;entryX=0.5;entryY=1;entryDx=0;entryDy=0;exitX=0.5;exitY=0;exitDx=0;exitDy=0;" parent="1" source="rGV1TPFnYJHoJYTPXf2p-1" target="vlsQt3YgnCiZvY81bwS3-41" edge="1">
          <mxGeometry width="50" height="50" relative="1" as="geometry">
            <mxPoint x="437.5" y="160" as="sourcePoint" />
            <mxPoint x="419.60000000000014" y="110.89999999999998" as="targetPoint" />
          </mxGeometry>
        </mxCell>
        <mxCell id="qsHT98boOKy2ws600NiJ-1" value="Date Of Birth" style="ellipse;whiteSpace=wrap;html=1;fontStyle=0" parent="1" vertex="1">
          <mxGeometry x="140" y="525" width="70" height="40" as="geometry" />
        </mxCell>
        <mxCell id="qsHT98boOKy2ws600NiJ-2" value="" style="endArrow=none;html=1;rounded=0;entryX=0;entryY=0.5;entryDx=0;entryDy=0;exitX=0.5;exitY=0;exitDx=0;exitDy=0;" parent="1" source="qsHT98boOKy2ws600NiJ-1" target="vlsQt3YgnCiZvY81bwS3-1" edge="1">
          <mxGeometry width="50" height="50" relative="1" as="geometry">
            <mxPoint x="190" y="520" as="sourcePoint" />
            <mxPoint x="240" y="470" as="targetPoint" />
          </mxGeometry>
        </mxCell>
        <mxCell id="qsHT98boOKy2ws600NiJ-3" value="No. Of Hours" style="ellipse;whiteSpace=wrap;html=1;" parent="1" vertex="1">
          <mxGeometry x="840" y="255" width="70" height="40" as="geometry" />
        </mxCell>
        <mxCell id="qsHT98boOKy2ws600NiJ-4" value="" style="endArrow=none;html=1;rounded=0;exitX=1;exitY=0.5;exitDx=0;exitDy=0;" parent="1" source="vlsQt3YgnCiZvY81bwS3-27" target="qsHT98boOKy2ws600NiJ-3" edge="1">
          <mxGeometry width="50" height="50" relative="1" as="geometry">
            <mxPoint x="750" y="410" as="sourcePoint" />
            <mxPoint x="800" y="360" as="targetPoint" />
          </mxGeometry>
        </mxCell>
        <mxCell id="qsHT98boOKy2ws600NiJ-5" value="Code" style="ellipse;whiteSpace=wrap;html=1;" parent="1" vertex="1">
          <mxGeometry x="840" y="315" width="70" height="40" as="geometry" />
        </mxCell>
        <mxCell id="qsHT98boOKy2ws600NiJ-6" value="" style="endArrow=none;html=1;rounded=0;entryX=1;entryY=0.5;entryDx=0;entryDy=0;" parent="1" source="qsHT98boOKy2ws600NiJ-5" target="vlsQt3YgnCiZvY81bwS3-27" edge="1">
          <mxGeometry width="50" height="50" relative="1" as="geometry">
            <mxPoint x="640" y="410" as="sourcePoint" />
            <mxPoint x="690" y="360" as="targetPoint" />
          </mxGeometry>
        </mxCell>
        <mxCell id="qsHT98boOKy2ws600NiJ-7" value="Code" style="ellipse;whiteSpace=wrap;html=1;" parent="1" vertex="1">
          <mxGeometry x="810" y="595" width="70" height="40" as="geometry" />
        </mxCell>
        <mxCell id="qsHT98boOKy2ws600NiJ-8" value="" style="endArrow=none;html=1;rounded=0;entryX=1;entryY=0.5;entryDx=0;entryDy=0;exitX=0;exitY=0.5;exitDx=0;exitDy=0;" parent="1" source="qsHT98boOKy2ws600NiJ-7" target="vlsQt3YgnCiZvY81bwS3-32" edge="1">
          <mxGeometry width="50" height="50" relative="1" as="geometry">
            <mxPoint x="710" y="640" as="sourcePoint" />
            <mxPoint x="760" y="590" as="targetPoint" />
          </mxGeometry>
        </mxCell>
        <mxCell id="rGV1TPFnYJHoJYTPXf2p-1" value="Grade" style="rounded=0;whiteSpace=wrap;html=1;" parent="1" vertex="1">
          <mxGeometry x="405" y="140" width="120" height="60" as="geometry" />
        </mxCell>
        <mxCell id="rGV1TPFnYJHoJYTPXf2p-3" value="ID" style="ellipse;whiteSpace=wrap;html=1;fontStyle=4" parent="1" vertex="1">
          <mxGeometry x="367.5" y="70" width="70" height="40" as="geometry" />
        </mxCell>
        <mxCell id="rGV1TPFnYJHoJYTPXf2p-5" value="" style="endArrow=none;html=1;rounded=0;entryX=0.675;entryY=0.973;entryDx=0;entryDy=0;entryPerimeter=0;exitX=0.5;exitY=0;exitDx=0;exitDy=0;" parent="1" source="rGV1TPFnYJHoJYTPXf2p-1" target="rGV1TPFnYJHoJYTPXf2p-3" edge="1">
          <mxGeometry width="50" height="50" relative="1" as="geometry">
            <mxPoint x="287.5" y="230" as="sourcePoint" />
            <mxPoint x="337.5" y="180" as="targetPoint" />
          </mxGeometry>
        </mxCell>
        <mxCell id="vlsQt3YgnCiZvY81bwS3-43" value="Register" style="rhombus;whiteSpace=wrap;html=1;" parent="1" vertex="1">
          <mxGeometry x="440" y="285" width="60" height="60" as="geometry" />
        </mxCell>
        <mxCell id="rGV1TPFnYJHoJYTPXf2p-11" value="" style="endArrow=none;html=1;rounded=0;entryX=0.5;entryY=1;entryDx=0;entryDy=0;exitX=0.5;exitY=0;exitDx=0;exitDy=0;" parent="1" source="vlsQt3YgnCiZvY81bwS3-43" target="rGV1TPFnYJHoJYTPXf2p-1" edge="1">
          <mxGeometry width="50" height="50" relative="1" as="geometry">
            <mxPoint x="360" y="270" as="sourcePoint" />
            <mxPoint x="410" y="220" as="targetPoint" />
          </mxGeometry>
        </mxCell>
        <mxCell id="rGV1TPFnYJHoJYTPXf2p-12" value="M" style="text;html=1;strokeColor=none;fillColor=none;align=center;verticalAlign=middle;whiteSpace=wrap;rounded=0;" parent="1" vertex="1">
          <mxGeometry x="430" y="200" width="40" height="20" as="geometry" />
        </mxCell>
      </root>
    </mxGraphModel>
  </diagram>
</mxfile>
